/* XPM */
static char *cb4d6a4488a34cb6e5187604dad5a525jEOcD9AKyCmma79C[] = {
/* columns rows colors chars-per-pixel */
"32 32 252 2 ",
"   c None",
".  c #6B5363",
"X  c #6C5564",
"o  c #7B5768",
"O  c #745868",
"+  c #5F6B6F",
"@  c #5A7774",
"#  c #5C7C79",
"$  c #5E7F78",
"%  c #606D71",
"&  c #6C6F74",
"*  c #736A72",
"=  c #6F7276",
"-  c #607E77",
";  c #707478",
":  c #717578",
">  c #727578",
",  c #8E486B",
"<  c #8F4A6C",
"1  c #8F4B6D",
"2  c #904D6F",
"3  c #944E6D",
"4  c #8A5266",
"5  c #84576A",
"6  c #96506E",
"7  c #97516E",
"8  c #9E546C",
"9  c #95596D",
"0  c #9E5A6D",
"q  c #9F5C6F",
"w  c #975370",
"e  c #9A5470",
"r  c #935F70",
"t  c #A2596F",
"y  c #A65B6E",
"u  c #A65C6F",
"i  c #A55D72",
"p  c #A45D73",
"a  c #A65E72",
"s  c #A75F73",
"d  c #A85D70",
"f  c #A85E71",
"g  c #A85E72",
"h  c #AA5F72",
"j  c #876876",
"k  c #8F6A79",
"l  c #926070",
"z  c #946573",
"x  c #986774",
"c  c #996976",
"v  c #9C6C77",
"b  c #90707D",
"n  c #92727F",
"m  c #A76073",
"M  c #A76074",
"N  c #A96072",
"B  c #A96073",
"V  c #AE6373",
"C  c #A86174",
"Z  c #AB6375",
"A  c #AD6374",
"S  c #AD6475",
"D  c #AC6575",
"F  c #AD6575",
"G  c #AE6474",
"H  c #AE6475",
"J  c #AF6475",
"K  c #AF6675",
"L  c #AF6676",
"P  c #AE6776",
"I  c #AF6776",
"U  c #A36178",
"Y  c #A36278",
"T  c #A4637A",
"R  c #AF6979",
"E  c #AB6A7D",
"W  c #B06776",
"Q  c #B16776",
"!  c #B06876",
"~  c #B16876",
"^  c #B16976",
"/  c #B16977",
"(  c #B26A77",
")  c #B16978",
"_  c #B26A78",
"`  c #B36B78",
"'  c #B26A79",
"]  c #B56B78",
"[  c #B46B79",
"{  c #B46C78",
"}  c #B56C78",
"|  c #B56C79",
" . c #B56D79",
".. c #B66D79",
"X. c #B76F7B",
"o. c #B86F7B",
"O. c #B5707C",
"+. c #B9707B",
"@. c #B9717C",
"#. c #BA727C",
"$. c #BB737D",
"%. c #BC737D",
"&. c #BC747D",
"*. c #BD747D",
"=. c #BD747E",
"-. c #BD757E",
";. c #BD767F",
":. c #BE767E",
">. c #BE767F",
",. c #BE777F",
"<. c #BF777F",
"1. c #5F807A",
"2. c #628177",
"3. c #608179",
"4. c #638178",
"5. c #628379",
"6. c #61817A",
"7. c #61827A",
"8. c #648678",
"9. c #668B7B",
"0. c #698F7B",
"q. c #69907B",
"w. c #6A917A",
"e. c #6F917C",
"r. c #6C937C",
"t. c #70987D",
"y. c #759A7E",
"u. c #789C7F",
"i. c #A26C86",
"p. c #A26D86",
"a. c #A36D86",
"s. c #A46E87",
"d. c #A56F87",
"f. c #A46F88",
"g. c #A67281",
"h. c #A1708B",
"j. c #A2728C",
"k. c #A3738D",
"l. c #A3748E",
"z. c #A6758C",
"x. c #A8768D",
"c. c #B37785",
"v. c #BF7780",
"b. c #B57987",
"n. c #B57A87",
"m. c #BF7880",
"M. c #B17C8C",
"N. c #B17C8D",
"B. c #B57F8C",
"V. c #B67F8C",
"C. c #C07880",
"Z. c #C27C83",
"A. c #C37C84",
"S. c #C37D84",
"D. c #C47E84",
"F. c #7E8285",
"G. c #6F9181",
"H. c #749A80",
"J. c #789C80",
"K. c #799984",
"L. c #7A9B85",
"P. c #7B958D",
"I. c #7E978D",
"U. c #7D978F",
"Y. c #7E978E",
"T. c #7F978E",
"R. c #78A080",
"E. c #829693",
"W. c #829793",
"Q. c #829794",
"!. c #809A90",
"~. c #919494",
"^. c #B6808D",
"/. c #B7818E",
"(. c #AB8890",
"). c #AA9399",
"_. c #AC949A",
"`. c #81A883",
"'. c #83AA84",
"]. c #B48EA0",
"[. c #B48FA1",
"{. c #B58FA1",
"}. c #B490A1",
"|. c #9AAAA5",
" X c #A0B0AA",
".X c #A1B1AB",
"XX c #B9B4B1",
"oX c #CD8A8E",
"OX c #CE8B8F",
"+X c #CE8C8F",
"@X c #CF8C8F",
"#X c #C399A0",
"$X c #C39AA1",
"%X c #C6AEB0",
"&X c #C8ADB5",
"*X c #C8AEB5",
"=X c #C9AEB6",
"-X c #CAB0B7",
";X c #D2B4B5",
":X c #D2B5B5",
">X c #B5C2B8",
",X c #B6C3B9",
"<X c #B6C4BA",
"1X c #D4CBC6",
"2X c #D6CDC7",
"3X c #D9CBCB",
"4X c #DACBCB",
"5X c #DBCCCB",
"6X c #DECECB",
"7X c #DCCFCD",
"8X c #DCCFCE",
"9X c #CFD6CC",
"0X c #CFD6CD",
"qX c #DBD5CE",
"wX c #DCD5CE",
"eX c #DFD5CF",
"rX c #DDD6CF",
"tX c #D3D9CF",
"yX c #DED2D0",
"uX c #DED3D0",
"iX c #D7D9D0",
"pX c #D5DBD1",
"aX c #D9DFD4",
"sX c #E0CFCB",
"dX c #E0D0CB",
"fX c #E1D1CC",
"gX c #E2D2CD",
"hX c #E2D3CD",
"jX c #E3D5CF",
"kX c #E0D5D1",
"lX c #E3D6D0",
"zX c #E0D8D1",
"xX c #DCE1D6",
"cX c #DDE3D8",
"vX c #ECEADF",
"bX c #EBEDE1",
"nX c #EEECE1",
"mX c #EEF0E4",
"MX c #F3F4E7",
"NX c #F4F5E8",
"BX c #F6F7E9",
"VX c #F6F7EA",
"CX c #F5F9EB",
"ZX c #F6F8EA",
"AX c #F6F9EB",
"SX c #F8F8EA",
"DX c #FAFAEC",
"FX c #F8FCED",
"GX c #F8FEEF",
"HX c #FAFEEF",
"JX c #FAFFEF",
"KX c #FCFDEF",
/* pixels */
"                                                                ",
"                                                                ",
"                                            SXSXSXSXSXNXNXMX    ",
"                                            tX0X0X0X0XaXbXNX    ",
"                            MXNXZXZXNXNXDXiX|.E.Q.E.E..XaXNX    ",
"                            NXvXeXeXnXmXxX,XT.2.5.- @ E.0XSX    ",
"                            ZXqX)._.zXcX.XT.L.u.J.r.- E.0XSX    ",
"                            FX1Xn j XX<XP.8.y.`.'.J.5.Q.0XSX    ",
"                    ZXZXZXFXFX2Xn O F.T.G.w.t.R.`.u.2.E.0XSX    ",
"                    hXsXsXhXhX%Xk . + # 9.w.0.r.H.L.T.|.tXSX    ",
"                FXlX#XV./././.g.5 X % # 1.5.5.5.5.!.,XiX        ",
"                lX:Xn.y u f f 0 4 o * ; ; ; ; = & ~.iXKX        ",
"            FXlX#Xn.O.] } } } P q 9 r z c v v x l (.eXFX        ",
"            lX:Xn.A :.D.C.:.:.+.P N f f P W W V f n.:XjX        ",
"        ZXhX#Xn.O.:.OX@XS.:.:.%.#.} P P P W W P P R c.#XhXZX    ",
"        ZXsXV.y ] D.@XOXZ.:.Z.S.C.#._ P P P P P ~ N 8 N.6XZX    ",
"        ZXsX/.u } C.S.Z.:.Z.OX@XS.#._ P P P P W ~ i 3 x.5XZX    ",
"        ZXdX/.f } :.:.:.:.S.@X@XS.#._ P P P P W ~ i 2 l.3XZX    ",
"        ZXdX/.f } :.:.:.:.v.S.S.m.#._ P P P P W ~ i 2 l.3XZX    ",
"        ZX6XN.t ] :.:.:.:.:.:.:.#.} ~ P P P P ~ ~ i < j.3XZX    ",
"        ZX5Xz.7 _ :.:.:.:.:.:.#.} ~ ~ P P P P ~ ~ i < j.3XZX    ",
"        ZX7X].d.E _ o.#.#.#.#.} ~ P P P P P ~ P i Y i.].7XZX    ",
"            yX=Xd.e C } _ _ _ ~ ~ P P P P ~ ~ i 7 i.=XyX        ",
"            FXyX].i.Y i P W W P m M P ~ ~ P i Y i.}.yXFX        ",
"                yX=Xi.7 i ~ ~ C w w C ~ ~ i 7 i.=XyX            ",
"                FXyX}.i.Y i i T f.f.T i i Y i.}.yXFX            ",
"                    yX=Xi., , d.-X-Xd., , i.=XyX                ",
"                    FXyX].h.h.].lXlX].h.h.].yXFX                ",
"                        7X3X3X7X    7X3X3X7X                    ",
"                        ZXZXZXZX    ZXZXZXZX                    ",
"                                                                ",
"                                                                "
};
