/* XPM */
static char *_462a382db844f66eb1318a50821c7cfpG2i91GT581oXDE5[] = {
/* columns rows colors chars-per-pixel */
"32 32 12 1 ",
"  c black",
". c None",
"X c #5F7A79",
"o c #97BB8E",
"O c #AED499",
"+ c #C2E09A",
"@ c #6E967C",
"# c #90625D",
"$ c #AA7959",
"% c #B68962",
"& c #C49A6C",
"* c white",
/* pixels */
"                                ",
"           XXXXXXXXX            ",
"         XXoOOOOOOooX           ",
"       XXoOOO+++O++OoXX         ",
"      XoOOOOO+++O++OOooX        ",
"     XoO+++O+++OOOOOOOOoX       ",
"    XooO++++++OOO+++OOOooX      ",
"    XOOOOO++OOOOO++++++ooX      ",
"   XoOOOOOOOOOOOOOOO+++OOoX     ",
"   XoOOOOOOOOOOOOOOOOOOOOoX     ",
"   XoooOOOooOOOOOOoooOOoooX     ",
"   XoooOOOooOOOOOOoooOOooX      ",
"   XoooooooooooOOoOOOooooX      ",
"    XoooOOOoooooooooooooooX     ",
"    XoooooooooooooooooooooX     ",
"   X@oooooooooooooooooooo@X     ",
"   X@@@o@@oo@@@ooooo@@@@@@X     ",
"   X@@@o@@oo@@@ooooo@@@@@@X     ",
"   X@@@@@@@@ooooo@@@ooo@@X      ",
"    X@@ooo@@@@@@@@@@@@@@@X      ",
"    X@@@@@@@@@@@@@@@@@@@@X      ",
"     X@@@@@@@@@@@@@@@@@@X       ",
"      XX@@@@@@@@@@@@@XXX        ",
"        XXXXXXXXXXXXX           ",
"           #$$$$$$#             ",
"           #%$$$$%#             ",
"          .#%%%%%%#.            ",
"        ...#%&%&&&#...          ",
"       ...#&&&&&&&&#...         ",
"       ....&&&&&&&&....         ",
"        ......&&......          ",
"          ..........            "
};
