/* XPM */
static char *d3d2288821f94b7fa88c71c8faa8ad46dxz18SYynVjFZ4dI[] = {
/* columns rows colors chars-per-pixel */
"32 32 52 1 ",
"  c #4EA67F",
". c #4EAF7B",
"X c #4BAB7E",
"o c #4BAD7D",
"O c #4DAD7D",
"+ c #5AAE77",
"@ c #51A77E",
"# c #51AF7A",
"$ c #52A87D",
"% c #54A97C",
"& c #50AD7C",
"* c #59AD78",
"= c #54B277",
"- c #56B575",
"; c #5BB672",
": c #5CB771",
"> c #5DB174",
", c #59B574",
"< c #5EB870",
"1 c #53B179",
"2 c #50B07A",
"3 c #51B07A",
"4 c #68BF66",
"5 c #62B66F",
"6 c #63BC6B",
"7 c #66BE68",
"8 c #65B86D",
"9 c #69BC68",
"0 c #62B570",
"q c #7BCF49",
"w c #7ACD4D",
"e c #78CC4F",
"r c #6FC45D",
"t c #74C757",
"y c #77CB51",
"u c #77CA52",
"i c #76CA54",
"p c #74C956",
"a c #78CB50",
"s c #73C758",
"d c #73C759",
"f c #74C758",
"g c #70C35F",
"h c #70C45D",
"j c #74C858",
"k c #6BC163",
"l c #6DC063",
"z c #6AC064",
"x c #479F84",
"c c #47A183",
"v c #48A581",
"b c #4AA482",
/* pixels */
"O3<w5xr322XX.3r,drb#.XX#3gx5q+OO",
"*utdiii+ur$$9wdisu984 $d+udidia:",
"ijiidudussuuididusuiiuuduudusjfi",
"ujdddtsdispsdddiddddddpdddddijfa",
"<uddiuddidsssddididdudduidddssi<",
"zspudddisdidiissddididduddiisidz",
"ypdddddusididsiduidddddsduddijii",
".*iduidddissdisddddudupdddiddu*#",
"#disidssiidsdsiidddudipdiddsuud#",
"O=risdiddsdiisdspudsdpsdudpdpk=O",
"Ov0ididdsdsiidsdsppdidduddddu0v.",
"O8wddduiiisdsdiididduddudiuddw8O",
"-qddsudddsidsidsddududdsdddipdq=",
"c>uddduddisdsdisidpdddpdiudddu>c",
"l4idiuddssiiiidddudsdispdduddikl",
"iididddiiddsdssidddudipddudpdpip",
",isssddidiisissdpiddddupspudddp,",
"ldiiiissssddddiispdiusdddisdudsr",
"2yjsdsididsisidssddupddddduppde2",
"3kyddisdisdisdisupdddduiiddddek3",
"2O8ysjiiddsisidddduddpddddddu8O.",
"Obzydddssisddisiduddsdipiusdi4 O",
"3gyjsidiisiddsisdpiiuudsdddudur3",
"3isjdissddisisddpsdddddpdudidfa3",
"$*yssissidssidsisddidiisdiddsu*b",
"jisisssijjidisdiiissssddddidudus",
"bisssdsijpjpddssdsididsiuiddispv",
"0issiissjijpsiiddisdissidddussi0",
"iiisddssjpjjjjipssidsssjsssiiidi",
"issssijipiipijjjidiiiyipiisssssi",
";isiiii<yh=-zijjjizzk3,s;iissii;",
"O3<y6Or32-vo22h,ijvv3OX33hX6w<3O"
};
