/* XPM */
static char *_bfa064b2e5b4965b5e7406fb7389ab6hT9GOY0M1iDYom2y[] = {
/* columns rows colors chars-per-pixel */
"32 32 49 1 ",
"  c #4EA67F",
". c #4EAE7B",
"X c #4BAB7E",
"o c #4BAD7D",
"O c #4DAD7D",
"+ c #5AAE77",
"@ c #51A77E",
"# c #50AE7B",
"$ c #52A87D",
"% c #54A97C",
"& c #50AD7C",
"* c #59AD78",
"= c #54B277",
"- c #56B575",
"; c #5BB672",
": c #5CB771",
"> c #5DB174",
", c #59B574",
"< c #5EB870",
"1 c #51B07A",
"2 c #54B278",
"3 c #68BF66",
"4 c #62B66F",
"5 c #63BC6B",
"6 c #66BE68",
"7 c #60B96E",
"8 c #65B86D",
"9 c #69BC68",
"0 c #62B570",
"q c #7BCF49",
"w c #7ACD4D",
"e c #6FC45D",
"r c #74C757",
"t c #77CA52",
"y c #74C857",
"u c #78CB50",
"i c #78CC50",
"p c #73C758",
"a c #74C758",
"s c #70C35F",
"d c #70C45D",
"f c #74C858",
"g c #6BC163",
"h c #6CC063",
"j c #6AC064",
"k c #479F84",
"l c #47A183",
"z c #48A581",
"x c #4AA880",
/* pixels */
"O1<w4kd111XX#1e,yhz1#XO11dk0q>&.",
"*tyyyyy*yd$@9iayat389@%p+yyyfyt;",
"yfyyyfytyyttypyyyfyyyttytyayyyfy",
"tyyyyyypyyppfyyyyyrayppypyyyyyyt",
"7yyyyyyyyyyyyyyyyyyyyyyyyyyyyyy7",
"3yyyyyyyyyyyyyyyyyyyyyyyyyyyyyy3",
"uyyyyyyyyyyyyyyyyyyyyyyyyyyyyyyu",
"#+tpyyyyyyyyyyyyyyyyyyyyyyyypt+#",
"1pyfyyyyyyyyyyyyyyyyyyyyyyyyfyp1",
"O=syyyyyyyyyyyyyyyyyyyyyyyyyys=O",
".z0tpyyyyyyyyyyyyyyyyyyyyyypt0z.",
"O8wpyyyyyyyyyyyyyyyyyyyyyyyypw8O",
"-qpyyyyyyyyyyyyyyyyyyyyyyyyyypq-",
"l>tpyyyyyyyyyyyyyyyyyyyyyyyypt>l",
"hhyyyyyyyyyyyyyyyyyyyyyyyyyyyyhh",
"yyyyyyyyyyyyyyyyyyyyyyyyyyyyyyyy",
",yyyyyyyyyyyyyyyyyyyyyyyyyyyyyy,",
"eyyyyyyyyyyyyyyyyyyyyyyyyyyyyyye",
"1upyyyyyyyyyyyyyyyyyyyyyyyyyypu1",
"1gwpyyyyyyyyyyyyyyyyyyyyyyyypwg1",
".O8tpyyyyyyyyyyyyyyyyyyyyyypt8O.",
"O hyayyyyyyyyyyyyyyyyyyyyyyayh O",
"1dtpyyyyyyyyyyyyyyyyyyyyyyyyptd1",
"1ypyyyyyyyyyyyyyyyyyyyyyyyyyypy1",
"@*tpyyyyyyyyyyyyyyyyyyyyyyyypt*@",
"pyyyyyyyyyyyyyyyyyyyyyyyyyyyyyyp",
"xyyyyyyyyyyyyyyyyyyyyyyyyyyyyyyx",
"4yyyyyyyyyyyyyyyyyyyyyyyyyyyyyy0",
"tyyyyyypyyppyyyyyyyfyppypyyyyyyt",
"yfyyyyytyyttypyyyyyyyttyyyyyyyfy",
";tyyyyy;yd==juyyftj6j2-p:yyyyyt;",
"O1<w5od111OO11e,yeO11OO12do5w<1O"
};
