/* XPM */
static char *_66b2b9e6c424f5385a36548486c1555azkXtgWMxep7lXvA[] = {
/* columns rows colors chars-per-pixel */
"32 32 9 1 ",
"  c None",
". c black",
"X c #472312",
"o c #5F321E",
"O c #874D32",
"+ c #A06042",
"@ c #B57253",
"# c #D18C6B",
"$ c white",
/* pixels */
"                                ",
"                                ",
"                                ",
"                                ",
"                                ",
"                                ",
"                                ",
"                                ",
"                                ",
"                                ",
"                                ",
"                                ",
"                                ",
"            $$$   $$$           ",
"           $ooo$ $ooo$          ",
"          $o@@@o$oOOOX$         ",
"         $o@OOO@oOOOOOX$        ",
"         $X@O@@@@@@@@OX$        ",
"         $X@@@@@@@@@@@X$        ",
"         $X@@@@@@@@@@@X$        ",
"         $X@@@@.$@@@.$X$        ",
"         $X@@@@..@@@..X$        ",
"         $X@@@@@@@@O@@X$        ",
"         $XO@@@@@@@@@OX$        ",
"          $XOOOOOOOOOX$         ",
"           $X+++++++X$          ",
"          $X##@@@@@@XX$         ",
"          $X##O@@@@@XX$         ",
"           $XOOOOOOXX$          ",
"            $XOOXXXX$           ",
"            $XXX$XXX$           ",
"             $$$ $$$            "
};
