/* XPM */
static char *d8e5a356c4544014fb8bcbf86bd68b46BVDpIPS3qxwHpzHH[] = {
/* columns rows colors chars-per-pixel */
"36 36 3 1 ",
"  c #67E6D2",
". c #91EDDF",
"X c #BFFCF3",
/* pixels */
"                                    ",
"                                    ",
"                                    ",
"                                    ",
"                                    ",
"   ..X. .         ..X .             ",
"                                    ",
"                                    ",
"                                    ",
"                             . .X.  ",
"                                    ",
"                                    ",
"                                    ",
"                                    ",
"  .X.                               ",
"                                    ",
"                                    ",
"                           . .X..   ",
"                                    ",
"         . ..X                      ",
"                                    ",
"                   ..X .            ",
"                                    ",
"                                    ",
"                                    ",
"                                    ",
"                                    ",
"                       ....X .      ",
"                                    ",
"                                    ",
"  ..X .                             ",
"                                    ",
"          X ...              ..X.   ",
"                                    ",
"                                    ",
"                                    "
};
