/* XPM */
static char *b350997d139d4ab893f9c6e67c045c7cHXmu6vdsFVLFTmkG[] = {
/* columns rows colors chars-per-pixel */
"32 32 67 1 ",
"  c #67E6D2",
". c #66E6D2",
"X c #65E6D1",
"o c #6FE7D5",
"O c #7FEAD9",
"+ c #8FEFE0",
"@ c #89EDDE",
"# c #6DE7D4",
"$ c #7AE9D8",
"% c #69E6D3",
"& c #7DEAD9",
"* c #87ECDD",
"= c #89EEDF",
"- c #71E8D5",
"; c #73E8D6",
": c #6CE7D4",
"> c #76E8D7",
", c #80ECDB",
"< c #7CEBD9",
"1 c #6AE7D3",
"2 c #68E6D2",
"3 c #75E8D6",
"4 c #7BEAD9",
"5 c #7CEBDA",
"6 c #6EE7D4",
"7 c #66E6D1",
"8 c #7CEAD9",
"9 c #74E8D6",
"0 c #9EF3E6",
"q c #95F0E2",
"w c #65E5D1",
"e c #6CE7D3",
"r c #90EFE1",
"t c #6AE6D3",
"y c #81EADA",
"u c #6FE7D4",
"i c #9DF2E5",
"p c #88EBDC",
"a c #72E8D5",
"s c #71E8D6",
"d c #6DE8D4",
"f c #85EBDB",
"g c #98F1E3",
"h c #85EEDD",
"j c #7DEBD9",
"k c #79EAD9",
"l c #7EEAD9",
"z c #8AEDDE",
"x c #83EDDD",
"c c #70E7D5",
"v c #6BE7D3",
"b c #79E9D8",
"n c #89ECDD",
"m c #88ECDC",
"M c #8BECDE",
"N c #9FF4E7",
"B c #7FEBDA",
"V c #75EAD7",
"C c #8DEEDF",
"Z c #7EECDB",
"A c #6FE8D5",
"S c #8DEFE0",
"D c #80EADA",
"F c #8CEEDF",
"G c #77E9D7",
"H c #7EEBDA",
"J c white",
/* pixels */
"                                ",
"                                ",
"                                ",
"   .XX .        .XX..           ",
" .oO+@#$%      %&*=-;.          ",
"  :>,<1;2      2345#6           ",
"   .X. .        ..7             ",
"                         2%2::2 ",
"                        .o890q6.",
"                          2 %%  ",
"                                ",
"  Xw.                           ",
" e@r-.                          ",
" t<,#                           ",
"  .X                    2 %%2   ",
"                       tyuqipa. ",
"       2:%#sd           t2::12  ",
"       %Oufghw   .7..           ",
"                %3jku#          ",
"                1lzx9c.         ",
"                 .XX.           ",
"                                ",
"                                ",
"                    %11v#2%     ",
"                   .bnmMN-&.    ",
"  .X..              2222% 2     ",
" 1>BVcv                         ",
" #OCZ>#  w ..             .XX   ",
"  .X..  ASuDDo.          #OFC6. ",
"        :ZeGG:           1>HHe  ",
"         X ..             .XX   ",
"                                "
};
